<svg xmlns="http://www.w3.org/2000/svg" viewBox="0 0 1540.79 408.58"><defs><style>.cls-1{fill:#bb7e5d;}.cls-2{fill:none;stroke:#fff;stroke-linecap:round;stroke-linejoin:round;stroke-width:8px;}.cls-3{fill:#fff;}</style></defs><g id="Layer_2" data-name="Layer 2"><g id="Layer_2-2" data-name="Layer 2"><rect class="cls-1" width="1540.79" height="408.58" rx="204.29"/><polygon class="cls-2" points="1155.16 109.5 1155.16 222.97 1310.02 311.46 1330.27 299.36 1330.27 186.64 1175.73 97.12 1155.16 109.5"/><polyline class="cls-2" points="1155.16 109.5 1310.02 198.88 1310.02 311.46"/><line class="cls-2" x1="1310.02" y1="198.88" x2="1330.27" y2="186.64"/><polyline class="cls-2" points="1169.19 130.33 1232.59 230.16 1295.67 205.58"/><line class="cls-2" x1="1104.26" y1="116.87" x2="1141.24" y2="138.07"/><line class="cls-2" x1="1095.54" y1="173.48" x2="1132.52" y2="194.69"/><line class="cls-2" x1="1072.27" y1="130.33" x2="1122.75" y2="159.28"/><path class="cls-3" d="M183.79,141h72.49v12.38H196.43v39.65h59.34v12.38H196.43v49.71h59.34v12.38h-72Z"/><path class="cls-3" d="M272.37,267.54,290.48,141h2L344,244.84,394.89,141h2l18.2,126.5h-12.4l-12.5-90.47L345.5,267.54h-3.24L297,176.38l-12.42,91.16Z"/><path class="cls-3" d="M491.66,141l59,126.5H537l-19.9-41.62H462.6l-19.7,41.62H428.79L488.56,141Zm-1.6,26.88-21.68,45.79h43.25Z"/><path class="cls-3" d="M568.45,141h12.64v126.5H568.45Z"/><path class="cls-3" d="M610.07,141h12.65V255.33h48.67v12.21H610.07Z"/><path class="cls-3" d="M734.43,267.54,752.54,141h2.05L806,244.84,857,141h2l18.2,126.5h-12.4l-12.5-90.47-44.72,90.47h-3.23l-45.27-91.16-12.42,91.16Z"/><path class="cls-3" d="M902.12,141h72.5v12.38H914.76v39.65H974.1v12.38H914.76v49.71H974.1v12.38h-72Z"/></g></g></svg>