<svg xmlns="http://www.w3.org/2000/svg" viewBox="0 0 48.75 30.33"><defs><style>.cls-1{fill:#233842;fill-rule:evenodd;}</style></defs><g id="Layer_2" data-name="Layer 2"><g id="Calque_1" data-name="Calque 1"><path class="cls-1" d="M0,30.33V0L.15,0C5.06,0,10,0,14.88,0a11.5,11.5,0,0,1,4.7.93A6.86,6.86,0,0,1,23.8,6.53a8.56,8.56,0,0,1-.36,4.14,5.71,5.71,0,0,1-2.66,3.06l-.58.33.26.1a6.58,6.58,0,0,1,4.23,5.19A9.06,9.06,0,0,1,24,25.21,8.43,8.43,0,0,1,17.47,30a21.69,21.69,0,0,1-3.86.31H0Zm7-5.27h.16c2.13,0,4.26,0,6.38,0a11.27,11.27,0,0,0,1.93-.19,3.41,3.41,0,0,0,2.85-2.76,6.08,6.08,0,0,0,.14-1.7,3.23,3.23,0,0,0-2.23-3A6.8,6.8,0,0,0,14,17H7ZM7,12h6.6a5.94,5.94,0,0,0,2.83-.65A2.43,2.43,0,0,0,17.7,9.73a4.7,4.7,0,0,0,.11-1.83,2.52,2.52,0,0,0-1.93-2.26,11.84,11.84,0,0,0-3-.37H7Z"/><path class="cls-1" d="M48.74,20.13H32.91c0,.32.06.63.1.93a5.79,5.79,0,0,0,.51,1.77A4.62,4.62,0,0,0,37,25.41a6.75,6.75,0,0,0,2.65,0,4.18,4.18,0,0,0,2.9-2.19.3.3,0,0,1,.29-.17h5.62c-.07.3-.12.58-.2.86a7.71,7.71,0,0,1-1.73,2.86A9.78,9.78,0,0,1,40.41,30a13.2,13.2,0,0,1-5.66-.3,11,11,0,0,1-5.05-3,8.58,8.58,0,0,1-2.11-4.23,16.37,16.37,0,0,1,.24-8.31,9.47,9.47,0,0,1,7.83-6.87A12.52,12.52,0,0,1,42.84,8a9.07,9.07,0,0,1,4.68,4.51,10.48,10.48,0,0,1,1.13,4.21c.07,1.08.07,2.17.1,3.25C48.75,20,48.74,20.06,48.74,20.13Zm-5.91-3.76a.38.38,0,0,0,0-.1c0-.21-.05-.42-.08-.62A4.32,4.32,0,0,0,40,12.14a5.55,5.55,0,0,0-2.55-.35,4.22,4.22,0,0,0-3.84,2.64,10.78,10.78,0,0,0-.46,1.39c0,.17-.06.36-.1.55Z"/><path class="cls-1" d="M31.82,4.76V1.27H44V4.76Z"/></g></g></svg>