<svg xmlns="http://www.w3.org/2000/svg" viewBox="0 0 42.86 42.86"><defs><style>.cls-1{fill:#233842;}</style></defs><g id="Layer_2" data-name="Layer 2"><g id="Calque_1" data-name="Calque 1"><circle class="cls-1" cx="32.78" cy="11.11" r="2.51"/><path class="cls-1" d="M21.61,10.87A10.56,10.56,0,1,0,32.16,21.43,10.58,10.58,0,0,0,21.61,10.87Zm0,17.32a6.76,6.76,0,1,1,6.76-6.76A6.77,6.77,0,0,1,21.61,28.19Z"/><path class="cls-1" d="M30,42.86H12.87A12.89,12.89,0,0,1,0,30V12.87A12.88,12.88,0,0,1,12.87,0H30A12.89,12.89,0,0,1,42.86,12.87V30A12.9,12.9,0,0,1,30,42.86ZM12.87,4A8.86,8.86,0,0,0,4,12.87V30a8.86,8.86,0,0,0,8.84,8.84H30A8.86,8.86,0,0,0,38.83,30V12.87A8.86,8.86,0,0,0,30,4Z"/></g></g></svg>