<svg xmlns="http://www.w3.org/2000/svg" viewBox="0 0 82.98 33.64"><defs><style>.cls-1{fill:#223843;}</style></defs><g id="Layer_2" data-name="Layer 2"><g id="Calque_1" data-name="Calque 1"><path class="cls-1" d="M0,16,2.29,0h.26l6.5,13.13L15.5,0h.25l2.3,16H16.49L14.91,4.56,9.25,16H8.84L3.12,4.47,1.54,16Z"/><path class="cls-1" d="M34,0l7.46,16H39.69l-2.51-5.27H30.29L27.79,16H26L33.57,0Zm-.2,3.4L31,9.19h5.47Z"/><path class="cls-1" d="M49.38,0h3.18a18.79,18.79,0,0,1,3.61.22,4.1,4.1,0,0,1,2.32,1.4,4,4,0,0,1,.89,2.64,4.3,4.3,0,0,1-.61,2.3A3.8,3.8,0,0,1,57,8.05a8,8,0,0,1-3.15.52L59.61,16h-2L51.88,8.57H51V16H49.38ZM51,1.57V7l2.76,0a6.89,6.89,0,0,0,2.37-.31,2.5,2.5,0,0,0,1.2-1,2.79,2.79,0,0,0,.43-1.5,2.61,2.61,0,0,0-.44-1.46,2.42,2.42,0,0,0-1.14-.94,6.93,6.93,0,0,0-2.35-.28Z"/><path class="cls-1" d="M75.52,0,83,16H81.25l-2.52-5.27H71.84L69.35,16H67.57L75.12,0Zm-.21,3.4L72.57,9.19H78Z"/><circle class="cls-1" cx="42.67" cy="21.4" r="0.46"/><path class="cls-1" d="M60.86,24.67c0-.06-.08-.12-.13-.08a12.7,12.7,0,0,1-3.92,1.64c-.42,0-.42-.21-.27-.57l.52-1.24c.29-.67,0-.86-.29-.86-.66,0-1.56.9-2,1.41l.38-.91c.15-.37,0-.5-.27-.5a.86.86,0,0,0-.38.09l-.61.33s0,0,0,0c-2.31,1.22-4.08,2.25-5.4,3.11l1.07-2.56c.15-.36.15-.65-.21-.65l-.17,0a1.18,1.18,0,0,0-.88-.34,2.54,2.54,0,0,0-2,1.25.46.46,0,0,1-.22.17,23.07,23.07,0,0,1-4.25,1.25c-.47,0-.42-.27-.28-.57l.66-1.6c.16-.37,0-.5-.26-.5a.84.84,0,0,0-.38.09L41,24h0a17.65,17.65,0,0,1-4.36,1.51s-.05,0-.05-.05a5.06,5.06,0,0,0-.32-1.63.22.22,0,0,1,.09-.19,2.1,2.1,0,0,0,.82-1.23c0-.15-.06-.25-.21-.25-.48,0-1.05.84-1.09,1.46l-.67.38h0c-1.54.84-4.32,2.25-5.48,2.25a.53.53,0,0,1-.61-.53,2.25,2.25,0,0,1,.19-.73c.75-.06,1.87-.34,1.87-1,0-.42-.47-.46-.63-.46a2.29,2.29,0,0,0-2.07,1.2.47.47,0,0,1-.26.24,23.24,23.24,0,0,1-4.06,1.25c-.27,0-.61-.17-.33-.84L26,20.12c.11-.27.27-.71-.06-.71s-.42.16-.63.63l-1.7,3.73a1.25,1.25,0,0,0-.72-.21,2.69,2.69,0,0,0-2.37,2.37.63.63,0,0,0,.71.68c.49,0,1.14-.64,1.67-1.3,0,0,.07,0,.06,0-.19.62-.12,1.27,1,1.27a21.39,21.39,0,0,0,4.3-1.31,2.6,2.6,0,0,0,0,.26c0,.61.35,1.05,1.24,1.05,1.15,0,3.27-1,5.9-2.36h0l.46-.24,0,1.3a2.33,2.33,0,0,1,0,.38,7.27,7.27,0,0,1-1,.09.56.56,0,0,0-.55.25c-.17.34-.14.86.72.86A1.57,1.57,0,0,0,36.4,26a.19.19,0,0,1,.14-.12,19,19,0,0,0,4.56-1.59c.11-.05.21,0,.17.1l-.57,1.37c-.23.54.13.88.69.88a18.58,18.58,0,0,0,4.68-1.3,1.59,1.59,0,0,0-.14.62.63.63,0,0,0,.71.68c.53,0,1.31-.82,1.85-1.54l-1.08,2.66a.54.54,0,0,1-.16.21c-.27.19-.53.38-.75.56-1.81,1.47-3,3.23-3,4.41,0,.42.2.73.54.73,1.59,0,2.89-2.81,4.15-5.8a.56.56,0,0,1,.22-.28A58.53,58.53,0,0,1,54,24.27h0c.12-.05.21,0,.18.1l-.83,2c-.09.23.06.28.22.28a.7.7,0,0,0,.66-.36,6.29,6.29,0,0,1,1.65-1.87c.15-.12.42-.19.32,0l-.55,1.31c-.21.52.11.88.68.88,1.59,0,4.45-1.79,4.45-1.79A.13.13,0,0,0,60.86,24.67ZM30.5,23.81c.16,0,.25.07.25.21,0,.42-.69.61-1.32.61A1.34,1.34,0,0,1,30.5,23.81ZM21.61,26c-.1,0-.17,0-.17-.21,0-.59.78-2,1.54-2a.53.53,0,0,1,.44.27C23,24.84,22,26,21.61,26ZM35,26.63c-.27,0-.29-.19-.17-.44a.24.24,0,0,1,.17-.11c.19,0,.42,0,.67-.08C35.52,26.36,35.31,26.63,35,26.63ZM47,26c-.1,0-.17,0-.17-.21,0-.59.78-2,1.54-2a.53.53,0,0,1,.44.27A5.66,5.66,0,0,1,47,26Zm-2.94,7.31c-.19,0-.25-.19-.25-.32,0-.94,1.89-3.53,3.3-4.55C46.22,30.87,44.88,33.35,44.08,33.35Z"/><circle class="cls-1" cx="22.03" cy="8.82" r="0.82"/><circle class="cls-1" cx="43.97" cy="8.82" r="0.82"/><circle class="cls-1" cx="64" cy="8.82" r="0.82"/></g></g></svg>