<svg xmlns="http://www.w3.org/2000/svg" viewBox="0 0 40.87 32.81"><defs><style>.cls-1{fill:#233842;}</style></defs><g id="Layer_2" data-name="Layer 2"><g id="Calque_1" data-name="Calque 1"><path class="cls-1" d="M40.2,3.93a17.93,17.93,0,0,1-4.28,1.15C36.57,5,37.4,3.8,37.78,3.33A7.25,7.25,0,0,0,39.05.88a.15.15,0,0,0,0-.2.26.26,0,0,0-.23,0A20.35,20.35,0,0,1,34,2.52a.32.32,0,0,1-.34-.09A4.16,4.16,0,0,0,33.24,2,8.46,8.46,0,0,0,30.93.59,8,8,0,0,0,27.38,0,8.27,8.27,0,0,0,24,1a8.47,8.47,0,0,0-2.72,2.22,8.31,8.31,0,0,0-1.63,3.25,8.8,8.8,0,0,0-.08,3.43c0,.19,0,.22-.17.19C12.85,9.09,7.41,6.74,3,1.7c-.19-.21-.3-.21-.46,0C.6,4.62,1.54,9.27,4,11.56c.33.31.66.61,1,.89a8.38,8.38,0,0,1-3.17-.89c-.19-.12-.28-.05-.3.17a5.07,5.07,0,0,0,.05.94,8.42,8.42,0,0,0,5.19,6.71,4.81,4.81,0,0,0,1.06.32,9.42,9.42,0,0,1-3.11.1c-.23,0-.32.07-.23.29,1.37,3.73,4.32,4.84,6.53,5.47.3.05.59.05.89.12,0,0,0,0,0,.05-.74,1.12-3.28,1.95-4.46,2.37A16,16,0,0,1,.58,29c-.36-.05-.44-.05-.54,0s0,.15.11.25c.46.3.93.57,1.41.83a21.64,21.64,0,0,0,4.53,1.81c8.14,2.25,17.3.6,23.41-5.47C34.3,21.61,36,15,36,8.45c0-.25.31-.4.49-.53A18.53,18.53,0,0,0,40.16,4.6c.21-.28.71-.53.71-.63v0C40.87,3.83,40.37,3.86,40.2,3.93Z"/></g></g></svg>